<svg width="14" height="14" viewBox="0 0 14 14" fill="none" xmlns="http://www.w3.org/2000/svg">
<path d="M8.17499 7.00015L13.425 1.75849C13.5819 1.60157 13.6701 1.38874 13.6701 1.16682C13.6701 0.944903 13.5819 0.732074 13.425 0.575155C13.2681 0.418235 13.0552 0.330078 12.8333 0.330078C12.6114 0.330078 12.3986 0.418235 12.2417 0.575155L6.99999 5.82515L1.75832 0.575155C1.6014 0.418235 1.38857 0.330078 1.16666 0.330078C0.944738 0.330078 0.73191 0.418235 0.57499 0.575155C0.41807 0.732074 0.329914 0.944903 0.329914 1.16682C0.329914 1.38874 0.41807 1.60157 0.57499 1.75849L5.82499 7.00015L0.57499 12.2418C0.496883 12.3193 0.434888 12.4115 0.392581 12.513C0.350273 12.6146 0.328491 12.7235 0.328491 12.8335C0.328491 12.9435 0.350273 13.0524 0.392581 13.154C0.434888 13.2555 0.496883 13.3477 0.57499 13.4252C0.652459 13.5033 0.744626 13.5653 0.846176 13.6076C0.947725 13.6499 1.05665 13.6717 1.16666 13.6717C1.27667 13.6717 1.38559 13.6499 1.48714 13.6076C1.58869 13.5653 1.68085 13.5033 1.75832 13.4252L6.99999 8.17515L12.2417 13.4252C12.3191 13.5033 12.4113 13.5653 12.5128 13.6076C12.6144 13.6499 12.7233 13.6717 12.8333 13.6717C12.9433 13.6717 13.0523 13.6499 13.1538 13.6076C13.2554 13.5653 13.3475 13.5033 13.425 13.4252C13.5031 13.3477 13.5651 13.2555 13.6074 13.154C13.6497 13.0524 13.6715 12.9435 13.6715 12.8335C13.6715 12.7235 13.6497 12.6146 13.6074 12.513C13.5651 12.4115 13.5031 12.3193 13.425 12.2418L8.17499 7.00015Z" fill="#6B7280"/>
</svg>
