<svg width="139" height="237" viewBox="0 0 139 237" fill="none" xmlns="http://www.w3.org/2000/svg">
<g clip-path="url(#clip0_4618_461)">
<path d="M76.2423 0.342194C68.2428 2.14737 63.1837 6.57297 60.546 14.2595C59.5947 16.9382 59.4217 18.4522 59.3785 22.2372C59.3785 26.3717 59.5514 27.3616 60.8054 30.7973C63.5728 38.4256 69.3238 42.793 81.95 46.9274C87.0957 48.6161 89.6901 50.3048 90.7279 52.5176C92.0251 55.3127 91.0277 59.9581 89.5573 59.9581C86.3575 59.9581 86.3408 59.9581 82.9405 59.9581C78.5292 59.9581 79.2644 59.9581 74.8532 59.9581H73.3828H70.442C68.2363 59.9581 66.0307 59.9581 62.3547 59.9581C59.4139 59.9581 57.2083 59.9581 57.2083 59.9581C57.2083 60.6893 57.2083 75.3133 57.2083 78.9693C69.7129 78.9693 66.766 78.9693 73.7776 78.9693C79.2645 78.9693 88.2632 79.2459 92.2413 78.1395C99.1166 76.2178 104.522 70.6859 107.289 62.8828C108.543 59.2725 108.673 58.4572 108.673 53.1C108.673 48.0338 108.5 46.8692 107.548 44.0741C104.608 35.6305 100.154 32.0784 86.5335 27.4198C82.4257 26.0223 78.4476 24.45 77.7557 23.9842C75.0316 22.1208 75.0748 18.161 77.7557 15.6571C79.7016 13.9101 83.6364 13.8519 86.2741 15.5988C87.8308 16.5888 88.3496 17.404 89.4739 20.5485C90.4684 23.4019 90.9873 24.2753 91.5062 24.0424C91.8954 23.926 95.2681 23.6348 98.9436 23.4019C102.619 23.2272 105.949 22.936 106.338 22.7613C108.024 22.1208 105.084 11.5809 102.014 7.44644C99.9814 4.70956 97.1275 2.61323 93.4953 1.2739C90.5982 0.167503 79.7016 -0.414818 76.2423 0.342194Z" fill="black"/>
<path d="M27.8 39.4846V78.9692H49.8562H71.9123V69.3972V59.9581H65.2955H59.4138C52.0618 59.9581 45.4449 59.9581 45.4449 59.9581C45.4449 59.2269 45.4449 55.6308 45.4449 29.2478V-3.05176e-05H36.4124H27.8V39.4846Z" fill="black"/>
<path d="M8.38957 97.7471V86.4062H130.801V97.7471H8.38957ZM9.34293 207.375V158.609H0V147.269L8.38957 109.088H130.61L139 147.269V158.609H129.657V207.375H118.217V158.609H82.1797V207.375H9.34293ZM20.7833 196.034H70.7394V158.609H20.7833V196.034ZM11.2497 147.269H127.75L121.84 120.429H17.1605L11.2497 147.269Z" fill="black"/>
<path d="M19.5859 230V214H20.5625V229.094H28.375V230H19.5859ZM36.0859 230.25C35.0964 230.25 34.2161 229.984 33.4453 229.453C32.6745 228.917 32.0677 228.18 31.625 227.242C31.1823 226.305 30.9609 225.237 30.9609 224.039C30.9609 222.836 31.1823 221.768 31.625 220.836C32.0677 219.898 32.6745 219.161 33.4453 218.625C34.2161 218.089 35.0964 217.82 36.0859 217.82C37.0755 217.82 37.9557 218.089 38.7266 218.625C39.4974 219.161 40.1042 219.898 40.5469 220.836C40.9896 221.773 41.2109 222.841 41.2109 224.039C41.2109 225.237 40.9896 226.305 40.5469 227.242C40.1042 228.18 39.4974 228.917 38.7266 229.453C37.9557 229.984 37.0755 230.25 36.0859 230.25ZM36.0859 229.367C36.9245 229.367 37.6563 229.13 38.2813 228.656C38.9115 228.182 39.3984 227.542 39.7422 226.734C40.0911 225.927 40.2656 225.029 40.2656 224.039C40.2656 223.049 40.0911 222.154 39.7422 221.352C39.3932 220.544 38.9063 219.904 38.2813 219.43C37.6563 218.951 36.9245 218.711 36.0859 218.711C35.2474 218.711 34.5156 218.951 33.8906 219.43C33.2656 219.904 32.7786 220.544 32.4297 221.352C32.0807 222.154 31.9063 223.049 31.9063 224.039C31.9063 225.029 32.0781 225.927 32.4219 226.734C32.7708 227.542 33.2578 228.182 33.8828 228.656C34.513 229.13 35.2474 229.367 36.0859 229.367ZM48.9941 230.25C47.9733 230.25 47.0749 229.982 46.2988 229.445C45.5228 228.904 44.916 228.164 44.4785 227.227C44.0462 226.289 43.8301 225.227 43.8301 224.039C43.8301 222.852 44.0488 221.789 44.4863 220.852C44.9238 219.914 45.5306 219.174 46.3066 218.633C47.0827 218.091 47.9759 217.82 48.9863 217.82C49.7467 217.82 50.4395 217.977 51.0645 218.289C51.6947 218.602 52.2155 219.036 52.627 219.594C53.0436 220.151 53.3092 220.797 53.4238 221.531H52.4551C52.2988 220.719 51.9082 220.047 51.2832 219.516C50.6634 218.979 49.9004 218.711 48.9941 218.711C48.1816 218.711 47.4577 218.94 46.8223 219.398C46.1868 219.852 45.6868 220.479 45.3223 221.281C44.9577 222.078 44.7754 222.992 44.7754 224.023C44.7754 225.039 44.9525 225.951 45.3066 226.758C45.6608 227.56 46.1556 228.195 46.791 228.664C47.4264 229.133 48.1608 229.367 48.9941 229.367C49.5827 229.367 50.1191 229.25 50.6035 229.016C51.0931 228.781 51.502 228.448 51.8301 228.016C52.1582 227.583 52.3743 227.078 52.4785 226.5H53.4473C53.3327 227.24 53.0723 227.891 52.666 228.453C52.2598 229.016 51.7415 229.456 51.1113 229.773C50.4811 230.091 49.7754 230.25 48.9941 230.25ZM59.877 230.258C59.1842 230.258 58.5488 230.12 57.9707 229.844C57.3978 229.568 56.9368 229.164 56.5879 228.633C56.2441 228.102 56.0723 227.456 56.0723 226.695C56.0723 226.195 56.1608 225.755 56.3379 225.375C56.515 224.995 56.7884 224.667 57.1582 224.391C57.528 224.115 58.002 223.888 58.5801 223.711C59.1582 223.529 59.8483 223.388 60.6504 223.289C61.2598 223.216 61.804 223.146 62.2832 223.078C62.7624 223.005 63.1374 222.893 63.4082 222.742C63.6842 222.591 63.8223 222.362 63.8223 222.055V221.555C63.8223 220.68 63.5462 219.984 62.9941 219.469C62.4421 218.953 61.6816 218.695 60.7129 218.695C59.8535 218.695 59.1296 218.885 58.541 219.266C57.9577 219.641 57.5488 220.125 57.3145 220.719L56.416 220.383C56.6452 219.81 56.9759 219.333 57.4082 218.953C57.8457 218.573 58.3457 218.289 58.9082 218.102C59.4759 217.914 60.0697 217.82 60.6895 217.82C61.2259 217.82 61.7363 217.896 62.2207 218.047C62.7103 218.198 63.1452 218.427 63.5254 218.734C63.9108 219.042 64.2155 219.435 64.4395 219.914C64.6634 220.388 64.7754 220.956 64.7754 221.617V230H63.8223V227.836H63.752C63.5436 228.284 63.2572 228.693 62.8926 229.062C62.5332 229.427 62.0983 229.719 61.5879 229.937C61.0827 230.151 60.5124 230.258 59.877 230.258ZM59.9707 229.375C60.7207 229.375 61.3848 229.193 61.9629 228.828C62.5462 228.458 63.002 227.953 63.3301 227.312C63.6582 226.672 63.8223 225.945 63.8223 225.133V223.367C63.7025 223.471 63.528 223.565 63.2988 223.648C63.0749 223.727 62.8197 223.797 62.5332 223.859C62.252 223.917 61.9551 223.969 61.6426 224.016C61.3353 224.057 61.0358 224.096 60.7441 224.133C59.8691 224.237 59.1556 224.398 58.6035 224.617C58.0566 224.831 57.6556 225.112 57.4004 225.461C57.1504 225.81 57.0254 226.232 57.0254 226.727C57.0254 227.544 57.3066 228.19 57.8691 228.664C58.4316 229.138 59.1322 229.375 59.9707 229.375ZM69.7246 214V230H68.7715V214H69.7246ZM82.6309 218C82.5475 217.005 82.1413 216.201 81.4121 215.586C80.6882 214.971 79.7507 214.664 78.5996 214.664C77.8236 214.664 77.1335 214.807 76.5293 215.094C75.9251 215.38 75.4512 215.771 75.1074 216.266C74.7637 216.76 74.5918 217.328 74.5918 217.969C74.5918 218.38 74.6699 218.753 74.8262 219.086C74.9876 219.414 75.2142 219.708 75.5059 219.969C75.7975 220.224 76.1439 220.448 76.5449 220.641C76.946 220.833 77.3887 221.003 77.873 221.148L79.623 221.664C80.222 221.846 80.7741 222.057 81.2793 222.297C81.7897 222.536 82.2324 222.823 82.6074 223.156C82.9876 223.484 83.2819 223.87 83.4902 224.312C83.7038 224.755 83.8105 225.266 83.8105 225.844C83.8105 226.687 83.5918 227.443 83.1543 228.109C82.722 228.776 82.1048 229.302 81.3027 229.687C80.5059 230.068 79.5658 230.258 78.4824 230.258C77.4512 230.258 76.5527 230.083 75.7871 229.734C75.0267 229.385 74.4251 228.901 73.9824 228.281C73.5397 227.656 73.2897 226.937 73.2324 226.125H74.2324C74.2845 226.786 74.4954 227.359 74.8652 227.844C75.2402 228.323 75.7376 228.693 76.3574 228.953C76.9772 229.214 77.6855 229.344 78.4824 229.344C79.3418 229.344 80.0996 229.198 80.7559 228.906C81.4121 228.609 81.9251 228.198 82.2949 227.672C82.6647 227.146 82.8496 226.534 82.8496 225.836C82.8496 225.273 82.7168 224.792 82.4512 224.391C82.1855 223.99 81.7923 223.643 81.2715 223.352C80.7559 223.06 80.1152 222.799 79.3496 222.57L77.4824 222.008C76.2324 221.628 75.2767 221.109 74.6152 220.453C73.959 219.797 73.6309 218.979 73.6309 218C73.6309 217.177 73.8496 216.448 74.2871 215.812C74.7246 215.172 75.3184 214.669 76.0684 214.305C76.8236 213.94 77.6751 213.758 78.623 213.758C79.5762 213.758 80.4173 213.943 81.1465 214.312C81.8757 214.677 82.4538 215.18 82.8809 215.82C83.3079 216.456 83.5449 217.182 83.5918 218H82.6309ZM91.5762 218V218.852H86.334V218H91.5762ZM88.1074 215.125H89.0527V227.164C89.0527 227.654 89.1465 228.055 89.334 228.367C89.5267 228.674 89.7767 228.904 90.084 229.055C90.3965 229.201 90.7298 229.273 91.084 229.273C91.2559 229.273 91.4043 229.26 91.5293 229.234C91.6595 229.208 91.7819 229.174 91.8965 229.133L92.1309 230C91.985 230.052 91.8236 230.096 91.6465 230.133C91.4694 230.174 91.2611 230.195 91.0215 230.195C90.5215 230.195 90.0475 230.083 89.5996 229.859C89.1569 229.635 88.7975 229.31 88.5215 228.883C88.2454 228.456 88.1074 227.94 88.1074 227.336V215.125ZM99.4434 230.25C98.4538 230.25 97.5736 229.984 96.8027 229.453C96.0319 228.917 95.4251 228.18 94.9824 227.242C94.5397 226.305 94.3184 225.237 94.3184 224.039C94.3184 222.836 94.5397 221.768 94.9824 220.836C95.4251 219.898 96.0319 219.161 96.8027 218.625C97.5736 218.089 98.4538 217.82 99.4434 217.82C100.433 217.82 101.313 218.089 102.084 218.625C102.855 219.161 103.462 219.898 103.904 220.836C104.347 221.773 104.568 222.841 104.568 224.039C104.568 225.237 104.347 226.305 103.904 227.242C103.462 228.18 102.855 228.917 102.084 229.453C101.313 229.984 100.433 230.25 99.4434 230.25ZM99.4434 229.367C100.282 229.367 101.014 229.13 101.639 228.656C102.269 228.182 102.756 227.542 103.1 226.734C103.449 225.927 103.623 225.029 103.623 224.039C103.623 223.049 103.449 222.154 103.1 221.352C102.751 220.544 102.264 219.904 101.639 219.43C101.014 218.951 100.282 218.711 99.4434 218.711C98.6048 218.711 97.873 218.951 97.248 219.43C96.623 219.904 96.1361 220.544 95.7871 221.352C95.4382 222.154 95.2637 223.049 95.2637 224.039C95.2637 225.029 95.4355 225.927 95.7793 226.734C96.1283 227.542 96.6152 228.182 97.2402 228.656C97.8704 229.13 98.6048 229.367 99.4434 229.367ZM107.852 230V218H108.781V219.875H108.867C109.128 219.26 109.568 218.768 110.188 218.398C110.807 218.023 111.513 217.836 112.305 217.836C112.388 217.836 112.471 217.836 112.555 217.836C112.638 217.836 112.716 217.839 112.789 217.844V218.805C112.727 218.799 112.651 218.792 112.563 218.781C112.479 218.766 112.375 218.758 112.25 218.758C111.583 218.758 110.99 218.901 110.469 219.187C109.953 219.474 109.547 219.87 109.25 220.375C108.953 220.875 108.805 221.448 108.805 222.094V230H107.852ZM119.664 230.25C118.581 230.25 117.638 229.982 116.836 229.445C116.034 228.909 115.414 228.174 114.977 227.242C114.539 226.31 114.32 225.247 114.32 224.055C114.32 222.857 114.539 221.789 114.977 220.852C115.419 219.914 116.026 219.174 116.797 218.633C117.568 218.091 118.448 217.82 119.438 217.82C120.109 217.82 120.745 217.956 121.344 218.227C121.948 218.492 122.479 218.878 122.938 219.383C123.401 219.888 123.763 220.497 124.023 221.211C124.289 221.924 124.422 222.727 124.422 223.617V224.211H114.922V223.344H123.469C123.469 222.474 123.292 221.69 122.938 220.992C122.583 220.294 122.102 219.74 121.492 219.328C120.883 218.917 120.198 218.711 119.438 218.711C118.641 218.711 117.93 218.935 117.305 219.383C116.685 219.826 116.193 220.424 115.828 221.18C115.469 221.935 115.281 222.779 115.266 223.711V224.102C115.266 225.102 115.44 226 115.789 226.797C116.143 227.589 116.648 228.216 117.305 228.68C117.961 229.138 118.747 229.367 119.664 229.367C120.32 229.367 120.88 229.258 121.344 229.039C121.813 228.815 122.195 228.544 122.492 228.227C122.789 227.909 123.013 227.602 123.164 227.305L124.031 227.656C123.849 228.057 123.565 228.458 123.18 228.859C122.799 229.255 122.315 229.586 121.727 229.852C121.143 230.117 120.456 230.25 119.664 230.25Z" fill="black"/>
<path d="M98.875 201.975C100.897 200.342 102.424 198.772 103.454 197.265C104.485 195.758 105 194.353 105 193.05C105 191.903 104.791 190.931 104.373 190.133C103.955 189.336 103.44 188.685 102.827 188.179C102.215 187.674 101.549 187.309 100.829 187.085C100.11 186.862 99.4583 186.75 98.875 186.75C98.2917 186.75 97.6403 186.862 96.9208 187.085C96.2014 187.309 95.5354 187.674 94.9229 188.179C94.3104 188.685 93.7951 189.336 93.3771 190.133C92.959 190.931 92.75 191.903 92.75 193.05C92.75 194.353 93.2653 195.758 94.2958 197.265C95.3264 198.772 96.8528 200.342 98.875 201.975ZM98.875 204.192C96.2111 202.189 94.2326 200.274 92.9396 198.446C91.6465 196.618 91 194.819 91 193.05C91 191.728 91.2382 190.566 91.7146 189.565C92.191 188.563 92.8083 187.722 93.5667 187.042C94.325 186.361 95.1708 185.851 96.1042 185.51C97.0375 185.17 97.9611 185 98.875 185C99.7889 185 100.712 185.17 101.646 185.51C102.579 185.851 103.425 186.361 104.183 187.042C104.942 187.722 105.559 188.563 106.035 189.565C106.512 190.566 106.75 191.728 106.75 193.05C106.75 194.819 106.103 196.618 104.81 198.446C103.517 200.274 101.539 202.189 98.875 204.192ZM98.875 194.917C99.4389 194.917 99.9201 194.717 100.319 194.319C100.717 193.92 100.917 193.439 100.917 192.875C100.917 192.311 100.717 191.83 100.319 191.431C99.9201 191.033 99.4389 190.833 98.875 190.833C98.3111 190.833 97.8299 191.033 97.4312 191.431C97.0326 191.83 96.8333 192.311 96.8333 192.875C96.8333 193.439 97.0326 193.92 97.4312 194.319C97.8299 194.717 98.3111 194.917 98.875 194.917ZM91 208.333V206.583H106.75V208.333H91Z" fill="black"/>
</g>
<defs>
<clipPath id="clip0_4618_461">
<rect width="139" height="237" fill="white"/>
</clipPath>
</defs>
</svg>
