<svg width="360" height="312" viewBox="0 0 360 312" fill="none" xmlns="http://www.w3.org/2000/svg">
<path d="M130 197.375C131.208 197.375 132.24 196.948 133.094 196.094C133.948 195.24 134.375 194.208 134.375 193C134.375 191.792 133.948 190.76 133.094 189.906C132.24 189.052 131.208 188.625 130 188.625C128.792 188.625 127.76 189.052 126.906 189.906C126.052 190.76 125.625 191.792 125.625 193C125.625 194.208 126.052 195.24 126.906 196.094C127.76 196.948 128.792 197.375 130 197.375ZM130 218.062C135.542 213.021 139.635 208.448 142.281 204.344C144.927 200.24 146.25 196.625 146.25 193.5C146.25 188.583 144.677 184.562 141.531 181.438C138.385 178.312 134.542 176.75 130 176.75C125.458 176.75 121.615 178.312 118.469 181.438C115.323 184.562 113.75 188.583 113.75 193.5C113.75 196.625 115.104 200.24 117.812 204.344C120.521 208.448 124.583 213.021 130 218.062ZM130 223C123.292 217.292 118.281 211.99 114.969 207.094C111.656 202.198 110 197.667 110 193.5C110 187.25 112.01 182.271 116.031 178.562C120.052 174.854 124.708 173 130 173C135.292 173 139.948 174.854 143.969 178.562C147.99 182.271 150 187.25 150 193.5C150 197.667 148.344 202.198 145.031 207.094C141.719 211.99 136.708 217.292 130 223Z" fill="#F48241" fill-opacity="0.58"/>
<path d="M10 97.75V94H50.125V97.75H10ZM10.3125 134V117.875H7.25V114.125L10 101.5H50.0625L52.8125 114.125V117.875H49.75V134H46V117.875H34.1875V134H10.3125ZM14.0625 130.25H30.4375V117.875H14.0625V130.25ZM10.9375 114.125H49.125L47.1875 105.25H12.875L10.9375 114.125Z" fill="#F48241" fill-opacity="0.58"/>
<path d="M152.5 27.5625V48.75C152.5 49.75 152.125 50.625 151.375 51.375C150.625 52.125 149.75 52.5 148.75 52.5H111.187C110.187 52.5 109.312 52.125 108.562 51.375C107.812 50.625 107.437 49.75 107.437 48.75V27.5625C106.271 26.5625 105.5 25.3333 105.125 23.875C104.75 22.4167 104.792 20.9583 105.25 19.5L107.937 11.0625C108.271 9.9375 108.854 9.0625 109.687 8.4375C110.521 7.8125 111.479 7.5 112.562 7.5H147.125C148.292 7.5 149.312 7.82292 150.187 8.46875C151.062 9.11458 151.667 9.97917 152 11.0625L154.75 19.5C155.208 20.9583 155.24 22.4167 154.844 23.875C154.448 25.3333 153.667 26.5625 152.5 27.5625ZM135.625 25.625C136.833 25.625 137.854 25.2292 138.687 24.4375C139.521 23.6458 139.854 22.6875 139.687 21.5625L138.125 11.25H131.875V21.5625C131.875 22.6458 132.229 23.5938 132.937 24.4062C133.646 25.2188 134.542 25.625 135.625 25.625ZM123.937 25.625C125.104 25.625 126.094 25.2292 126.906 24.4375C127.719 23.6458 128.125 22.6875 128.125 21.5625V11.25H121.875L120.312 21.5625C120.146 22.6458 120.437 23.5938 121.187 24.4062C121.937 25.2188 122.854 25.625 123.937 25.625ZM112.562 25.625C113.562 25.625 114.427 25.2812 115.156 24.5938C115.885 23.9062 116.312 23.0625 116.437 22.0625L118.062 11.25H111.812L108.937 20.375C108.521 21.6667 108.687 22.8646 109.437 23.9688C110.187 25.0729 111.229 25.625 112.562 25.625ZM147.375 25.625C148.708 25.625 149.76 25.0833 150.531 24C151.302 22.9167 151.479 21.7083 151.062 20.375L148.187 11.25H141.937L143.562 22.0625C143.687 23.0625 144.115 23.9062 144.844 24.5938C145.573 25.2812 146.417 25.625 147.375 25.625ZM111.187 48.75H148.75V29.3125C148.792 29.3542 148.656 29.375 148.344 29.375H147.375C146.333 29.375 145.344 29.1562 144.406 28.7188C143.469 28.2812 142.542 27.6042 141.625 26.6875C140.958 27.5208 140.125 28.1771 139.125 28.6562C138.125 29.1354 137.021 29.375 135.812 29.375C134.562 29.375 133.49 29.1979 132.594 28.8438C131.698 28.4896 130.833 27.8958 130 27.0625C129.375 27.8125 128.583 28.3854 127.625 28.7812C126.667 29.1771 125.583 29.375 124.375 29.375C123.083 29.375 121.937 29.1458 120.937 28.6875C119.937 28.2292 119.083 27.5625 118.375 26.6875C117.375 27.5625 116.396 28.2292 115.437 28.6875C114.479 29.1458 113.521 29.375 112.562 29.375H111.719C111.448 29.375 111.271 29.3542 111.187 29.3125V48.75Z" fill="#F48241" fill-opacity="0.58"/>
<path d="M28.1875 304.5V299.25C25.8125 298.833 23.8646 297.927 22.3438 296.531C20.8229 295.135 19.7292 293.375 19.0625 291.25L22.5625 289.812C23.2708 291.812 24.2917 293.302 25.625 294.281C26.9583 295.26 28.5625 295.75 30.4375 295.75C32.4375 295.75 34.0833 295.25 35.375 294.25C36.6667 293.25 37.3125 291.875 37.3125 290.125C37.3125 288.292 36.7396 286.875 35.5938 285.875C34.4479 284.875 32.2917 283.854 29.125 282.812C26.125 281.854 23.8854 280.583 22.4062 279C20.9271 277.417 20.1875 275.438 20.1875 273.062C20.1875 270.771 20.9271 268.854 22.4062 267.312C23.8854 265.771 25.8125 264.896 28.1875 264.687V259.5H31.9375V264.687C33.8125 264.896 35.4271 265.51 36.7812 266.531C38.1354 267.552 39.1667 268.854 39.875 270.438L36.375 271.938C35.7917 270.604 35.0104 269.635 34.0312 269.031C33.0521 268.427 31.7708 268.125 30.1875 268.125C28.2708 268.125 26.75 268.562 25.625 269.438C24.5 270.312 23.9375 271.5 23.9375 273C23.9375 274.583 24.5625 275.865 25.8125 276.844C27.0625 277.823 29.375 278.833 32.75 279.875C35.5833 280.75 37.6771 282.01 39.0312 283.656C40.3854 285.302 41.0625 287.375 41.0625 289.875C41.0625 292.5 40.2917 294.615 38.75 296.219C37.2083 297.823 34.9375 298.854 31.9375 299.312V304.5H28.1875Z" fill="#F48241" fill-opacity="0.58"/>
<path d="M117.938 138.938C116.688 138.938 115.625 138.5 114.75 137.625C113.875 136.75 113.438 135.688 113.438 134.438C113.438 133.188 113.875 132.125 114.75 131.25C115.625 130.375 116.688 129.938 117.938 129.938C119.188 129.938 120.25 130.375 121.125 131.25C122 132.125 122.438 133.188 122.438 134.438C122.438 135.688 122 136.75 121.125 137.625C120.25 138.5 119.188 138.938 117.938 138.938ZM142.938 138.938C141.688 138.938 140.625 138.5 139.75 137.625C138.875 136.75 138.438 135.688 138.438 134.438C138.438 133.188 138.875 132.125 139.75 131.25C140.625 130.375 141.688 129.938 142.938 129.938C144.188 129.938 145.25 130.375 146.125 131.25C147 132.125 147.438 133.188 147.438 134.438C147.438 135.688 147 136.75 146.125 137.625C145.25 138.5 144.188 138.938 142.938 138.938ZM114.688 97.6875L121.563 111.938H139.563L147.375 97.6875H114.688ZM112.813 93.9375H149.625C150.583 93.9375 151.313 94.375 151.813 95.25C152.313 96.125 152.313 97 151.813 97.875L143.375 113.062C142.917 113.854 142.323 114.49 141.594 114.969C140.865 115.448 140.063 115.688 139.188 115.688H120.25L116.75 122.188H147.438V125.938H117.313C115.563 125.938 114.302 125.354 113.531 124.188C112.76 123.021 112.771 121.708 113.563 120.25L117.563 112.875L108.063 92.75H103.188V89H110.5L112.813 93.9375Z" fill="#F48241" fill-opacity="0.58"/>
<path d="M350.312 43.6875C351.438 44.2708 352.385 44.0833 353.156 43.125C353.927 42.1667 354.021 41.1667 353.438 40.125L349 31.75L345.625 40.9375L350.312 43.6875ZM337.062 41.0625H341.438L347.5 25.9375C347.75 25.3542 347.844 24.7812 347.781 24.2187C347.719 23.6562 347.375 23.2292 346.75 22.9375L341.562 20.6875C340.979 20.3958 340.396 20.3958 339.812 20.6875C339.229 20.9792 338.917 21.4167 338.875 22L337.062 41.0625ZM318.562 41.0625H322.875L321.125 22C321.083 21.375 320.802 20.9167 320.281 20.625C319.76 20.3333 319.146 20.3542 318.438 20.6875L313.5 22.8125C312.958 23.0208 312.656 23.4896 312.594 24.2187C312.531 24.9479 312.604 25.6042 312.812 26.1875L318.562 41.0625ZM309.688 43.6875L314.375 40.9375L311 31.75L306.562 40.4375C305.979 41.6042 306.104 42.5521 306.938 43.2812C307.771 44.0104 308.688 44.1458 309.688 43.6875ZM326.625 41.0625H333.312L335.375 18.3125C335.458 17.7292 335.302 17.2396 334.906 16.8438C334.51 16.4479 334.021 16.25 333.438 16.25H326.562C325.896 16.25 325.396 16.4479 325.062 16.8438C324.729 17.2396 324.583 17.7292 324.625 18.3125L326.625 41.0625ZM308.312 47.5C306.688 47.5 305.312 46.9167 304.187 45.75C303.062 44.5833 302.5 43.1875 302.5 41.5625C302.5 41.0625 302.594 40.5729 302.781 40.0937C302.969 39.6146 303.167 39.1458 303.375 38.6875L309.125 27.5C308.5 25.875 308.438 24.2604 308.938 22.6562C309.438 21.0521 310.438 19.9167 311.938 19.25L317.125 17.125C317.792 16.875 318.469 16.7292 319.156 16.6875C319.844 16.6458 320.479 16.8125 321.062 17.1875C321.396 15.8542 322.062 14.7396 323.062 13.8437C324.063 12.9479 325.229 12.5 326.562 12.5H333.438C334.771 12.5 335.938 12.9167 336.938 13.75C337.938 14.5833 338.604 15.6458 338.938 16.9375C339.562 16.6875 340.208 16.5833 340.875 16.625C341.542 16.6667 342.188 16.8333 342.812 17.125L348.062 19.25C349.604 19.8333 350.635 20.9167 351.156 22.5C351.677 24.0833 351.583 25.625 350.875 27.125L356.625 38.625C356.792 39.0833 356.979 39.5312 357.188 39.9687C357.396 40.4062 357.5 40.8542 357.5 41.3125C357.5 43.0625 356.875 44.5312 355.625 45.7187C354.375 46.9062 352.875 47.5 351.125 47.5C350.667 47.5 350.24 47.4062 349.844 47.2188C349.448 47.0312 349.042 46.8542 348.625 46.6875L344.812 44.8125H315.125L311.5 46.6875C311 46.8958 310.49 47.0833 309.969 47.25C309.448 47.4167 308.896 47.5 308.312 47.5Z" fill="#F48241" fill-opacity="0.58"/>
<path d="M23.5 51.25H36.4375V47.75L38.6875 46.8125C41.7708 45.5208 44.2917 43.8333 46.25 41.75C48.2083 39.6667 49.6042 37.3958 50.4375 34.9375H9.5C10.3333 37.3958 11.75 39.6771 13.75 41.7812C15.75 43.8854 18.25 45.5625 21.25 46.8125L23.5 47.75V51.25ZM19.75 55V50.125C15.375 48.375 11.8958 45.8333 9.3125 42.5C6.72917 39.1667 5.29167 35.4167 5 31.25H9.5V10.0625L55 5V8.125L25.125 11.4375V16.875H55V20H25.125V31.25H54.9375C54.6875 35.4167 53.25 39.1667 50.625 42.5C48 45.8333 44.5208 48.375 40.1875 50.125V55H19.75ZM18.875 16.875H22V11.75L18.875 12.125V16.875ZM12.625 16.875H15.75V12.4375L12.625 12.8125V16.875ZM18.875 31.25H22V20H18.875V31.25ZM12.625 31.25H15.75V20H12.625V31.25Z" fill="#F48241" fill-opacity="0.58"/>
<path d="M30 220.5C25.125 220.5 20.9896 218.802 17.5938 215.406C14.1979 212.01 12.5 207.875 12.5 203C12.5 198.833 13.7812 195.156 16.3438 191.969C18.9063 188.781 22.2083 186.75 26.25 185.875C25.1667 185.667 24.125 185.365 23.125 184.969C22.125 184.573 21.2292 183.979 20.4375 183.187C19.2708 181.979 18.4896 180.583 18.0938 179C17.6979 177.417 17.5 175.792 17.5 174.125V173C21.0833 172.917 24.1667 174.094 26.75 176.531C29.3333 178.969 30.6042 181.958 30.5625 185.5C31.1458 183.708 31.9688 182.042 33.0313 180.5C34.0938 178.958 35.2917 177.521 36.625 176.187C37 175.812 37.4375 175.625 37.9375 175.625C38.4375 175.625 38.875 175.812 39.25 176.187C39.625 176.562 39.8125 177 39.8125 177.5C39.8125 178 39.625 178.437 39.25 178.812C38.2083 179.854 37.2708 180.979 36.4375 182.187C35.6042 183.396 34.8958 184.667 34.3125 186C38.2292 187 41.4063 189.073 43.8438 192.219C46.2813 195.365 47.5 198.958 47.5 203C47.5 207.875 45.8021 212.01 42.4063 215.406C39.0104 218.802 34.875 220.5 30 220.5ZM30 216.75C33.8333 216.75 37.0833 215.417 39.75 212.75C42.4167 210.083 43.75 206.833 43.75 203C43.75 199.167 42.4167 195.917 39.75 193.25C37.0833 190.583 33.8333 189.25 30 189.25C26.1667 189.25 22.9167 190.583 20.25 193.25C17.5833 195.917 16.25 199.167 16.25 203C16.25 206.833 17.5833 210.083 20.25 212.75C22.9167 215.417 26.1667 216.75 30 216.75Z" fill="#F48241" fill-opacity="0.58"/>
<path d="M205 25.125V22.625C205 18.0833 207.188 14.4271 211.562 11.6562C215.938 8.88542 222.083 7.5 230 7.5C237.917 7.5 244.062 8.88542 248.438 11.6562C252.812 14.4271 255 18.0833 255 22.625V25.125H205ZM208.875 21.375H251.125C251 18.5 248.99 16.0938 245.094 14.1562C241.198 12.2188 236.167 11.25 230 11.25C223.833 11.25 218.781 12.2188 214.844 14.1562C210.906 16.0938 208.917 18.5 208.875 21.375ZM205 36.125V32.375C206.375 32.375 207.573 31.9167 208.594 31C209.615 30.0833 211.25 29.625 213.5 29.625C215.75 29.625 217.24 30.0833 217.969 31C218.698 31.9167 219.917 32.375 221.625 32.375C223.333 32.375 224.594 31.9167 225.406 31C226.219 30.0833 227.75 29.625 230 29.625C232.25 29.625 233.781 30.0833 234.594 31C235.406 31.9167 236.667 32.375 238.375 32.375C240.083 32.375 241.302 31.9167 242.031 31C242.76 30.0833 244.25 29.625 246.5 29.625C248.75 29.625 250.385 30.0833 251.406 31C252.427 31.9167 253.625 32.375 255 32.375V36.125C252.75 36.125 251.198 35.6667 250.344 34.75C249.49 33.8333 248.208 33.375 246.5 33.375C244.792 33.375 243.573 33.8333 242.844 34.75C242.115 35.6667 240.625 36.125 238.375 36.125C236.125 36.125 234.594 35.6667 233.781 34.75C232.969 33.8333 231.708 33.375 230 33.375C228.292 33.375 227.031 33.8333 226.219 34.75C225.406 35.6667 223.875 36.125 221.625 36.125C219.375 36.125 217.885 35.6667 217.156 34.75C216.427 33.8333 215.208 33.375 213.5 33.375C211.792 33.375 210.51 33.8333 209.656 34.75C208.802 35.6667 207.25 36.125 205 36.125ZM208.75 52.5C207.75 52.5 206.875 52.125 206.125 51.375C205.375 50.625 205 49.75 205 48.75V40.75H255V48.75C255 49.75 254.625 50.625 253.875 51.375C253.125 52.125 252.25 52.5 251.25 52.5H208.75ZM208.75 48.75H251.25V44.5H208.75V48.75Z" fill="#F48241" fill-opacity="0.58"/>
<path d="M211.25 139C210.25 139 209.375 138.625 208.625 137.875C207.875 137.125 207.5 136.25 207.5 135.25V102.125C207.5 101.125 207.875 100.25 208.625 99.5C209.375 98.75 210.25 98.375 211.25 98.375H218.125C218.125 95.0833 219.229 92.2812 221.438 89.9688C223.646 87.6563 226.396 86.5 229.688 86.5C232.979 86.5 235.833 87.6563 238.25 89.9688C240.667 92.2812 241.875 95.0833 241.875 98.375H248.75C249.75 98.375 250.625 98.75 251.375 99.5C252.125 100.25 252.5 101.125 252.5 102.125V135.25C252.5 136.25 252.125 137.125 251.375 137.875C250.625 138.625 249.75 139 248.75 139H211.25ZM211.25 135.25H248.75V102.125H211.25V135.25ZM230 117.125C233.292 117.125 236.146 115.917 238.562 113.5C240.979 111.083 242.188 108.229 242.188 104.938H238.438C238.438 107.229 237.604 109.208 235.938 110.875C234.271 112.542 232.292 113.375 230 113.375C227.708 113.375 225.729 112.542 224.062 110.875C222.396 109.208 221.562 107.229 221.562 104.938H217.812C217.812 108.229 219.021 111.083 221.438 113.5C223.854 115.917 226.708 117.125 230 117.125ZM221.875 98.375H238.125C238.125 96.0833 237.344 94.1562 235.781 92.5938C234.219 91.0312 232.292 90.25 230 90.25C227.708 90.25 225.781 91.0312 224.219 92.5938C222.656 94.1562 221.875 96.0833 221.875 98.375Z" fill="#F48241" fill-opacity="0.58"/>
</svg>
