<svg width="360" height="359" viewBox="0 0 360 359" fill="none" xmlns="http://www.w3.org/2000/svg">
<path d="M229.895 129.866C231.116 129.866 232.158 129.401 233.021 128.472C233.884 127.542 234.316 126.421 234.316 125.106C234.316 123.792 233.884 122.67 233.021 121.74C232.158 120.811 231.116 120.347 229.895 120.347C228.674 120.347 227.632 120.811 226.768 121.74C225.905 122.67 225.474 123.792 225.474 125.106C225.474 126.421 225.905 127.542 226.768 128.472C227.632 129.401 228.674 129.866 229.895 129.866ZM229.895 152.371C235.495 146.886 239.632 141.912 242.305 137.447C244.979 132.982 246.316 129.05 246.316 125.65C246.316 120.301 244.726 115.927 241.547 112.527C238.368 109.128 234.484 107.428 229.895 107.428C225.305 107.428 221.421 109.128 218.242 112.527C215.063 115.927 213.474 120.301 213.474 125.65C213.474 129.05 214.842 132.982 217.579 137.447C220.316 141.912 224.421 146.886 229.895 152.371ZM229.895 157.742C223.116 151.532 218.053 145.764 214.705 140.438C211.358 135.112 209.684 130.183 209.684 125.65C209.684 118.851 211.716 113.434 215.779 109.4C219.842 105.366 224.547 103.348 229.895 103.348C235.242 103.348 239.947 105.366 244.011 109.4C248.074 113.434 250.105 118.851 250.105 125.65C250.105 130.183 248.432 135.112 245.084 140.438C241.737 145.764 236.674 151.532 229.895 157.742Z" fill="#F48241" fill-opacity="0.6"/>
<path d="M309.474 210.777V206.697H350.021V210.777H309.474ZM309.789 250.212V232.67H306.695V228.591L309.474 214.856H349.958L352.737 228.591V232.67H349.642V250.212H345.853V232.67H333.916V250.212H309.789ZM313.579 246.133H330.126V232.67H313.579V246.133ZM310.421 228.591H349.01L347.053 218.936H312.379L310.421 228.591Z" fill="#F48241" fill-opacity="0.6"/>
<path d="M252.632 323.712V346.761C252.632 347.849 252.253 348.801 251.495 349.617C250.737 350.433 249.853 350.841 248.842 350.841H210.884C209.874 350.841 208.99 350.433 208.232 349.617C207.474 348.801 207.095 347.849 207.095 346.761V323.712C205.916 322.624 205.137 321.287 204.758 319.7C204.379 318.114 204.421 316.527 204.884 314.941L207.6 305.762C207.937 304.538 208.526 303.586 209.369 302.906C210.211 302.226 211.179 301.886 212.274 301.886H247.2C248.379 301.886 249.411 302.238 250.295 302.94C251.179 303.643 251.79 304.583 252.126 305.762L254.905 314.941C255.369 316.527 255.4 318.114 255 319.7C254.6 321.287 253.811 322.624 252.632 323.712ZM235.579 321.604C236.8 321.604 237.832 321.174 238.674 320.312C239.516 319.451 239.853 318.409 239.684 317.185L238.105 305.966H231.79V317.185C231.79 318.363 232.147 319.394 232.863 320.278C233.579 321.162 234.484 321.604 235.579 321.604ZM223.769 321.604C224.947 321.604 225.947 321.174 226.769 320.312C227.59 319.451 228 318.409 228 317.185V305.966H221.684L220.105 317.185C219.937 318.363 220.232 319.394 220.99 320.278C221.747 321.162 222.674 321.604 223.769 321.604ZM212.274 321.604C213.284 321.604 214.158 321.23 214.895 320.482C215.632 319.734 216.063 318.816 216.19 317.729L217.832 305.966H211.516L208.611 315.893C208.19 317.298 208.358 318.601 209.116 319.802C209.874 321.004 210.926 321.604 212.274 321.604ZM247.453 321.604C248.8 321.604 249.863 321.015 250.642 319.836C251.421 318.658 251.6 317.343 251.179 315.893L248.274 305.966H241.958L243.6 317.729C243.726 318.816 244.158 319.734 244.895 320.482C245.632 321.23 246.484 321.604 247.453 321.604ZM210.884 346.761H248.842V325.616C248.884 325.661 248.747 325.684 248.432 325.684H247.453C246.4 325.684 245.4 325.446 244.453 324.97C243.505 324.494 242.569 323.757 241.642 322.76C240.969 323.667 240.126 324.381 239.116 324.902C238.105 325.423 236.99 325.684 235.769 325.684C234.505 325.684 233.421 325.491 232.516 325.106C231.611 324.72 230.737 324.075 229.895 323.168C229.263 323.984 228.463 324.607 227.495 325.038C226.526 325.468 225.432 325.684 224.211 325.684C222.905 325.684 221.747 325.434 220.737 324.936C219.726 324.437 218.863 323.712 218.147 322.76C217.137 323.712 216.147 324.437 215.179 324.936C214.211 325.434 213.242 325.684 212.274 325.684H211.421C211.147 325.684 210.969 325.661 210.884 325.616V346.761Z" fill="#F48241" fill-opacity="0.6"/>
<path d="M111.158 255.652C110.147 255.652 109.263 255.244 108.505 254.428C107.747 253.612 107.368 252.66 107.368 251.572V215.536C107.368 214.448 107.747 213.496 108.505 212.68C109.263 211.864 110.147 211.456 111.158 211.456H118.105C118.105 207.875 119.221 204.827 121.453 202.311C123.684 199.796 126.463 198.538 129.789 198.538C133.116 198.538 136 199.796 138.442 202.311C140.884 204.827 142.105 207.875 142.105 211.456H149.053C150.063 211.456 150.947 211.864 151.705 212.68C152.463 213.496 152.842 214.448 152.842 215.536V251.572C152.842 252.66 152.463 253.612 151.705 254.428C150.947 255.244 150.063 255.652 149.053 255.652H111.158ZM111.158 251.572H149.053V215.536H111.158V251.572ZM130.105 231.854C133.432 231.854 136.316 230.54 138.758 227.911C141.2 225.282 142.421 222.177 142.421 218.596H138.632C138.632 221.089 137.789 223.242 136.105 225.055C134.421 226.868 132.421 227.775 130.105 227.775C127.789 227.775 125.789 226.868 124.105 225.055C122.421 223.242 121.579 221.089 121.579 218.596H117.789C117.789 222.177 119.011 225.282 121.453 227.911C123.895 230.54 126.779 231.854 130.105 231.854ZM121.895 211.456H138.316C138.316 208.963 137.526 206.867 135.947 205.167C134.368 203.467 132.421 202.617 130.105 202.617C127.789 202.617 125.842 203.467 124.263 205.167C122.684 206.867 121.895 208.963 121.895 211.456Z" fill="#F48241" fill-opacity="0.6"/>
<path d="M327.853 57.1136V51.4023C325.453 50.949 323.484 49.9631 321.947 48.4446C320.411 46.9261 319.305 45.011 318.632 42.6992L322.168 41.1354C322.884 43.3112 323.916 44.9317 325.263 45.9969C326.611 47.0621 328.232 47.5947 330.126 47.5947C332.147 47.5947 333.811 47.0508 335.116 45.9629C336.421 44.875 337.074 43.3792 337.074 41.4754C337.074 39.4809 336.495 37.9398 335.337 36.8519C334.179 35.764 332 34.6535 328.8 33.5203C325.768 32.4777 323.505 31.0952 322.011 29.3727C320.516 27.6503 319.768 25.4972 319.768 22.9134C319.768 20.4204 320.516 18.3353 322.011 16.6581C323.505 14.981 325.453 14.0291 327.853 13.8025V8.15909H331.642V13.8025C333.537 14.0291 335.168 14.6977 336.537 15.8082C337.905 16.9188 338.947 18.3353 339.663 20.0578L336.126 21.6896C335.537 20.2391 334.747 19.1852 333.758 18.5279C332.768 17.8707 331.474 17.542 329.874 17.542C327.937 17.542 326.4 18.018 325.263 18.9699C324.126 19.9218 323.558 21.2136 323.558 22.8455C323.558 24.5679 324.189 25.9618 325.453 27.027C326.716 28.0922 329.053 29.1914 332.463 30.3246C335.326 31.2765 337.442 32.6477 338.811 34.4382C340.179 36.2286 340.863 38.4837 340.863 41.2034C340.863 44.0591 340.084 46.3595 338.526 48.1046C336.968 49.8498 334.674 50.9716 331.642 51.4703V57.1136H327.853Z" fill="#F48241" fill-opacity="0.6"/>
<path d="M217.705 255.584C216.442 255.584 215.368 255.108 214.484 254.156C213.6 253.204 213.158 252.048 213.158 250.688C213.158 249.328 213.6 248.172 214.484 247.22C215.368 246.269 216.442 245.793 217.705 245.793C218.968 245.793 220.042 246.269 220.926 247.22C221.811 248.172 222.253 249.328 222.253 250.688C222.253 252.048 221.811 253.204 220.926 254.156C220.042 255.108 218.968 255.584 217.705 255.584ZM242.968 255.584C241.705 255.584 240.632 255.108 239.747 254.156C238.863 253.204 238.421 252.048 238.421 250.688C238.421 249.328 238.863 248.172 239.747 247.22C240.632 246.269 241.705 245.793 242.968 245.793C244.232 245.793 245.305 246.269 246.19 247.22C247.074 248.172 247.516 249.328 247.516 250.688C247.516 252.048 247.074 253.204 246.19 254.156C245.305 255.108 244.232 255.584 242.968 255.584ZM214.421 210.709L221.368 226.211H239.558L247.453 210.709H214.421ZM212.526 206.629H249.726C250.695 206.629 251.432 207.105 251.937 208.057C252.442 209.009 252.442 209.961 251.937 210.912L243.411 227.435C242.947 228.296 242.347 228.987 241.611 229.508C240.874 230.03 240.063 230.29 239.179 230.29H220.042L216.505 237.362H247.516V241.441H217.074C215.305 241.441 214.032 240.807 213.253 239.537C212.474 238.268 212.484 236.84 213.284 235.254L217.326 227.231L207.726 205.337H202.8V201.258H210.19L212.526 206.629Z" fill="#F48241" fill-opacity="0.6"/>
<path d="M50.8422 341.254C51.979 341.889 52.9369 341.685 53.7158 340.642C54.4948 339.599 54.5895 338.512 54.0001 337.378L49.5158 328.267L46.1053 338.262L50.8422 341.254ZM37.4527 338.398H41.8737L48.0001 321.944C48.2527 321.31 48.3474 320.686 48.2843 320.074C48.2211 319.462 47.8737 318.998 47.2422 318.68L42.0001 316.233C41.4106 315.915 40.8211 315.915 40.2316 316.233C39.6422 316.55 39.3264 317.026 39.2843 317.661L37.4527 338.398ZM18.7579 338.398H23.1158L21.3474 317.661C21.3053 316.981 21.0211 316.482 20.4948 316.165C19.9685 315.847 19.3474 315.87 18.6316 316.233L13.6422 318.544C13.0948 318.771 12.7895 319.281 12.7264 320.074C12.6632 320.868 12.7369 321.581 12.9474 322.216L18.7579 338.398ZM9.78953 341.254L14.5264 338.262L11.1158 328.267L6.63163 337.718C6.04216 338.988 6.16847 340.019 7.01058 340.812C7.85268 341.605 8.779 341.753 9.78953 341.254ZM26.9053 338.398H33.6632L35.7474 313.649C35.8316 313.014 35.6737 312.482 35.2737 312.051C34.8737 311.621 34.379 311.405 33.7895 311.405H26.8422C26.1685 311.405 25.6632 311.621 25.3264 312.051C24.9895 312.482 24.8422 313.014 24.8843 313.649L26.9053 338.398ZM8.40005 345.402C6.75795 345.402 5.36847 344.767 4.23163 343.498C3.09479 342.229 2.52637 340.71 2.52637 338.942C2.52637 338.398 2.6211 337.866 2.81058 337.344C3.00005 336.823 3.20005 336.313 3.41058 335.815L9.2211 323.644C8.58953 321.876 8.52637 320.12 9.03163 318.375C9.53689 316.629 10.5474 315.394 12.0632 314.669L17.3053 312.357C17.979 312.085 18.6632 311.927 19.3579 311.881C20.0527 311.836 20.6948 312.017 21.2843 312.425C21.6211 310.975 22.2948 309.762 23.3053 308.788C24.3158 307.813 25.4948 307.326 26.8422 307.326H33.7895C35.1369 307.326 36.3158 307.779 37.3264 308.686C38.3369 309.592 39.0106 310.748 39.3474 312.153C39.979 311.881 40.6316 311.768 41.3053 311.813C41.979 311.859 42.6316 312.04 43.2632 312.357L48.5685 314.669C50.1264 315.304 51.1685 316.482 51.6948 318.205C52.2211 319.927 52.1264 321.604 51.4106 323.236L57.2211 335.747C57.3895 336.245 57.579 336.732 57.7895 337.208C58.0001 337.684 58.1053 338.172 58.1053 338.67C58.1053 340.574 57.4737 342.172 56.2106 343.464C54.9474 344.756 53.4316 345.402 51.6632 345.402C51.2001 345.402 50.7685 345.3 50.3685 345.096C49.9685 344.892 49.5579 344.699 49.1369 344.518L45.2843 342.478H15.2843L11.6211 344.518C11.1158 344.744 10.6001 344.948 10.0737 345.13C9.54742 345.311 8.98953 345.402 8.40005 345.402Z" fill="#F48241" fill-opacity="0.6"/>
<path d="M323.116 349.481H336.189V345.673L338.463 344.654C341.579 343.248 344.126 341.413 346.105 339.146C348.084 336.88 349.495 334.409 350.337 331.735H308.968C309.81 334.409 311.242 336.891 313.263 339.18C315.284 341.469 317.81 343.294 320.842 344.654L323.116 345.673V349.481ZM319.326 353.561V348.257C314.905 346.353 311.389 343.588 308.779 339.962C306.168 336.336 304.716 332.256 304.421 327.723H308.968V304.674L354.947 299.167V302.566L324.758 306.17V312.085H354.947V315.485H324.758V327.723H354.884C354.632 332.256 353.179 336.336 350.526 339.962C347.874 343.588 344.358 346.353 339.979 348.257V353.561H319.326ZM318.442 312.085H321.6V306.51L318.442 306.918V312.085ZM312.126 312.085H315.284V307.258L312.126 307.666V312.085ZM318.442 327.723H321.6V315.485H318.442V327.723ZM312.126 327.723H315.284V315.485H312.126V327.723Z" fill="#F48241" fill-opacity="0.6"/>
<path d="M329.684 155.023C324.758 155.023 320.579 153.176 317.147 149.481C313.716 145.787 312 141.288 312 135.985C312 131.452 313.295 127.452 315.884 123.984C318.474 120.517 321.811 118.307 325.895 117.355C324.8 117.128 323.747 116.8 322.737 116.369C321.726 115.938 320.821 115.292 320.021 114.431C318.842 113.117 318.053 111.598 317.653 109.876C317.253 108.153 317.053 106.385 317.053 104.572V103.348C320.674 103.258 323.789 104.538 326.4 107.19C329.011 109.842 330.295 113.094 330.253 116.947C330.842 114.998 331.674 113.185 332.747 111.508C333.821 109.83 335.032 108.267 336.379 106.816C336.758 106.408 337.2 106.204 337.705 106.204C338.211 106.204 338.653 106.408 339.032 106.816C339.411 107.224 339.6 107.7 339.6 108.244C339.6 108.788 339.411 109.264 339.032 109.672C337.979 110.805 337.032 112.029 336.189 113.343C335.347 114.658 334.632 116.04 334.042 117.491C338 118.579 341.211 120.834 343.674 124.256C346.137 127.678 347.368 131.588 347.368 135.985C347.368 141.288 345.653 145.787 342.221 149.481C338.789 153.176 334.611 155.023 329.684 155.023ZM329.684 150.943C333.558 150.943 336.842 149.493 339.537 146.592C342.232 143.691 343.579 140.155 343.579 135.985C343.579 131.815 342.232 128.279 339.537 125.378C336.842 122.477 333.558 121.027 329.684 121.027C325.811 121.027 322.526 122.477 319.832 125.378C317.137 128.279 315.789 131.815 315.789 135.985C315.789 140.155 317.137 143.691 319.832 146.592C322.526 149.493 325.811 150.943 329.684 150.943Z" fill="#F48241" fill-opacity="0.6"/>
<path d="M104.842 321.06V318.341C104.842 313.4 107.053 309.422 111.474 306.408C115.895 303.394 122.105 301.886 130.105 301.886C138.105 301.886 144.316 303.394 148.737 306.408C153.158 309.422 155.368 313.4 155.368 318.341V321.06H104.842ZM108.758 316.981H151.453C151.326 313.853 149.295 311.235 145.358 309.128C141.421 307.02 136.337 305.966 130.105 305.966C123.874 305.966 118.768 307.02 114.789 309.128C110.81 311.235 108.8 313.853 108.758 316.981ZM104.842 333.027V328.947C106.232 328.947 107.442 328.449 108.474 327.452C109.505 326.454 111.158 325.956 113.432 325.956C115.705 325.956 117.21 326.454 117.947 327.452C118.684 328.449 119.916 328.947 121.642 328.947C123.368 328.947 124.642 328.449 125.463 327.452C126.284 326.454 127.832 325.956 130.105 325.956C132.379 325.956 133.926 326.454 134.747 327.452C135.568 328.449 136.842 328.947 138.568 328.947C140.295 328.947 141.526 328.449 142.263 327.452C143 326.454 144.505 325.956 146.779 325.956C149.053 325.956 150.705 326.454 151.737 327.452C152.768 328.449 153.979 328.947 155.368 328.947V333.027C153.095 333.027 151.526 332.528 150.663 331.531C149.8 330.534 148.505 330.035 146.779 330.035C145.053 330.035 143.821 330.534 143.084 331.531C142.347 332.528 140.842 333.027 138.568 333.027C136.295 333.027 134.747 332.528 133.926 331.531C133.105 330.534 131.832 330.035 130.105 330.035C128.379 330.035 127.105 330.534 126.284 331.531C125.463 332.528 123.916 333.027 121.642 333.027C119.368 333.027 117.863 332.528 117.126 331.531C116.389 330.534 115.158 330.035 113.432 330.035C111.705 330.035 110.41 330.534 109.547 331.531C108.684 332.528 107.116 333.027 104.842 333.027ZM108.632 350.841C107.621 350.841 106.737 350.433 105.979 349.617C105.221 348.801 104.842 347.849 104.842 346.761V338.058H155.368V346.761C155.368 347.849 154.989 348.801 154.232 349.617C153.474 350.433 152.589 350.841 151.579 350.841H108.632ZM108.632 346.761H151.579V342.138H108.632V346.761Z" fill="#F48241" fill-opacity="0.6"/>
</svg>
