<svg width="16" height="24" viewBox="0 0 16 24" fill="none" xmlns="http://www.w3.org/2000/svg">
<path d="M14 7.80016H13V5.62288C13 2.61824 10.76 0.179688 8 0.179688C5.24 0.179688 3 2.61824 3 5.62288V7.80016H2C0.9 7.80016 0 8.77994 0 9.97744V20.8638C0 22.0613 0.9 23.0411 2 23.0411H14C15.1 23.0411 16 22.0613 16 20.8638V9.97744C16 8.77994 15.1 7.80016 14 7.80016ZM8 17.5979C6.9 17.5979 6 16.6181 6 15.4206C6 14.2231 6.9 13.2434 8 13.2434C9.1 13.2434 10 14.2231 10 15.4206C10 16.6181 9.1 17.5979 8 17.5979ZM11.1 7.80016H4.9V5.62288C4.9 3.76131 6.29 2.2481 8 2.2481C9.71 2.2481 11.1 3.76131 11.1 5.62288V7.80016Z" fill="#FFC042"/>
</svg>
