<svg width="97" height="151" viewBox="0 0 97 151" fill="none" xmlns="http://www.w3.org/2000/svg">
<g clip-path="url(#clip0_4730_1647)">
<path d="M53.2051 0.218006C47.6227 1.36814 44.0922 4.18782 42.2515 9.08517C41.5877 10.7918 41.467 11.7564 41.4368 14.168C41.4368 16.8022 41.5575 17.4329 42.4326 19.6219C44.3638 24.4821 48.377 27.2647 57.1882 29.8989C60.779 30.9748 62.5895 32.0507 63.3137 33.4606C64.219 35.2414 63.5229 38.2012 62.4968 38.2012C60.2639 38.2012 60.2522 38.2012 57.8793 38.2012C54.801 38.2012 55.314 38.2012 52.2357 38.2012H51.2096H49.1573C47.6182 38.2012 46.079 38.2012 43.5137 38.2012C41.4615 38.2012 39.9223 38.2012 39.9223 38.2012C39.9223 38.667 39.9223 47.9844 39.9223 50.3137C48.6485 50.3137 46.5921 50.3137 51.4851 50.3137C55.314 50.3137 61.5937 50.49 64.3698 49.7851C69.1677 48.5607 72.9396 45.0361 74.8708 40.0646C75.7458 37.7643 75.8364 37.2449 75.8364 33.8316C75.8364 30.6038 75.7157 29.8618 75.0518 28.0809C72.9999 22.7013 69.8919 20.4381 60.3867 17.47C57.5201 16.5796 54.744 15.5779 54.2612 15.281C52.3602 14.0938 52.3903 11.5709 54.2612 9.97559C55.6191 8.86256 58.365 8.82546 60.2057 9.93849C61.292 10.5692 61.6541 11.0886 62.4386 13.0921C63.1326 14.91 63.4947 15.4666 63.8569 15.3181C64.1284 15.2439 66.4821 15.0584 69.047 14.91C71.6118 14.7987 73.9353 14.6132 74.2069 14.5019C75.3837 14.0938 73.3318 7.37852 71.1894 4.74434C69.7712 3.00059 67.7796 1.66495 65.2449 0.811626C63.2232 0.106706 55.6191 -0.264308 53.2051 0.218006Z" fill="black"/>
<path d="M19.4 25.1569V50.3138H34.7917H50.1835V44.2151V38.2012H45.566H41.4615C36.3309 38.2012 31.7134 38.2012 31.7134 38.2012C31.7134 37.7353 31.7134 35.4441 31.7134 18.6348V2.5608e-05H25.4101H19.4V25.1569Z" fill="black"/>
<path d="M5.85459 62.2776V55.0521H91.2785V62.2776H5.85459ZM6.51989 132.125V101.055H0V93.8294L5.85459 69.5032H91.1454L97 93.8294V101.055H90.4801V132.125H82.4966V101.055H57.3484V132.125H6.51989ZM14.5034 124.899H49.3649V101.055H14.5034V124.899ZM7.85048 93.8294H89.1495L85.0247 76.7288H11.9753L7.85048 93.8294Z" fill="black"/>
<path d="M68.9991 128.684C70.4103 127.644 71.4755 126.643 72.1946 125.683C72.9138 124.723 73.2734 123.828 73.2734 122.998C73.2734 122.267 73.1275 121.648 72.8358 121.14C72.544 120.632 72.1845 120.217 71.757 119.895C71.3296 119.573 70.8649 119.34 70.3628 119.198C69.8607 119.055 69.4062 118.984 68.9991 118.984C68.592 118.984 68.1375 119.055 67.6354 119.198C67.1333 119.34 66.6686 119.573 66.2412 119.895C65.8137 120.217 65.4542 120.632 65.1624 121.14C64.8707 121.648 64.7248 122.267 64.7248 122.998C64.7248 123.828 65.0844 124.723 65.8036 125.683C66.5227 126.643 67.5879 127.644 68.9991 128.684ZM68.9991 130.097C67.1401 128.821 65.7595 127.6 64.8571 126.436C63.9548 125.271 63.5036 124.125 63.5036 122.998C63.5036 122.156 63.6698 121.415 64.0023 120.777C64.3347 120.139 64.7655 119.604 65.2947 119.17C65.8239 118.736 66.4142 118.411 67.0655 118.194C67.7168 117.978 68.3614 117.869 68.9991 117.869C69.6369 117.869 70.2814 117.978 70.9327 118.194C71.584 118.411 72.1743 118.736 72.7035 119.17C73.2327 119.604 73.6635 120.139 73.9959 120.777C74.3284 121.415 74.4946 122.156 74.4946 122.998C74.4946 124.125 74.0434 125.271 73.1411 126.436C72.2387 127.6 70.8581 128.821 68.9991 130.097ZM68.9991 124.187C69.3926 124.187 69.7284 124.06 70.0066 123.806C70.2848 123.552 70.4239 123.246 70.4239 122.887C70.4239 122.527 70.2848 122.221 70.0066 121.967C69.7284 121.713 69.3926 121.586 68.9991 121.586C68.6056 121.586 68.2698 121.713 67.9916 121.967C67.7134 122.221 67.5743 122.527 67.5743 122.887C67.5743 123.246 67.7134 123.552 67.9916 123.806C68.2698 124.06 68.6056 124.187 68.9991 124.187ZM63.5036 132.736V131.621H74.4946V132.736H63.5036Z" fill="black"/>
</g>
<defs>
<clipPath id="clip0_4730_1647">
<rect width="97" height="151" fill="white"/>
</clipPath>
</defs>
</svg>
