<svg width="82" height="144" viewBox="0 0 82 144" fill="none" xmlns="http://www.w3.org/2000/svg">
<g clip-path="url(#clip0_4658_927)">
<path d="M44.9773 0.207916C40.2581 1.30473 37.2736 3.99371 35.7176 8.66402C35.1564 10.2916 35.0543 11.2115 35.0288 13.5112C35.0288 16.0233 35.1309 16.6248 35.8706 18.7123C37.5032 23.3472 40.8958 26.0008 48.3444 28.5129C51.38 29.5389 52.9105 30.565 53.5227 31.9095C54.288 33.6077 53.6996 36.4303 52.8322 36.4303C50.9445 36.4303 50.9346 36.4303 48.9287 36.4303C46.3264 36.4303 46.7601 36.4303 44.1578 36.4303H43.2903H41.5555C40.2543 36.4303 38.9532 36.4303 36.7846 36.4303C35.0497 36.4303 33.7485 36.4303 33.7485 36.4303C33.7485 36.8745 33.7485 45.76 33.7485 47.9813C41.1254 47.9813 39.3869 47.9813 43.5233 47.9813C46.7601 47.9813 52.0687 48.1494 54.4155 47.4772C58.4714 46.3096 61.66 42.9484 63.2926 38.2073C64.0324 36.0137 64.1089 35.5183 64.1089 32.2633C64.1089 29.1851 64.0068 28.4775 63.4456 26.7792C61.711 21.6489 59.0836 19.4907 51.0483 16.6602C48.625 15.811 46.2782 14.8557 45.8701 14.5727C44.263 13.4405 44.2885 11.0346 45.8701 9.51316C47.018 8.45173 49.3393 8.41635 50.8953 9.47778C51.8136 10.0793 52.1197 10.5746 52.7829 12.4852C53.3697 14.2189 53.6758 14.7496 53.9819 14.6081C54.2114 14.5373 56.2011 14.3604 58.3694 14.2189C60.5376 14.1127 62.5018 13.9358 62.7314 13.8297C63.7262 13.4405 61.9916 7.03648 60.1805 4.52442C58.9816 2.86151 57.298 1.58779 55.1553 0.774021C53.4462 0.101776 47.018 -0.252037 44.9773 0.207916Z" fill="black"/>
<path d="M16.3999 23.9907V47.9813H29.4115H42.423V42.1654V36.4303H38.5196H35.0498C30.7126 36.4303 26.8092 36.4303 26.8092 36.4303C26.8092 35.986 26.8092 33.801 26.8092 17.7709V-3.8147e-06H21.4806H16.3999V23.9907Z" fill="black"/>
<path d="M4.94924 59.3906V52.5H77.1632V59.3906H4.94924ZM5.51166 126V96.3703H0V89.4797L4.94924 66.2812H77.0508L82 89.4797V96.3703H76.4883V126H69.7394V96.3703H48.4801V126H5.51166ZM12.2606 119.109H41.7311V96.3703H12.2606V119.109ZM6.63649 89.4797H75.3635L71.8765 73.1719H10.1235L6.63649 89.4797Z" fill="black"/>
<path d="M59.25 121.447C60.6583 120.309 61.7214 119.216 62.4391 118.166C63.1568 117.117 63.5156 116.139 63.5156 115.231C63.5156 114.432 63.3701 113.755 63.0789 113.2C62.7878 112.645 62.4289 112.191 62.0023 111.839C61.5758 111.487 61.112 111.233 60.6109 111.077C60.1099 110.922 59.6562 110.844 59.25 110.844C58.8438 110.844 58.3901 110.922 57.8891 111.077C57.388 111.233 56.9242 111.487 56.4977 111.839C56.0711 112.191 55.7122 112.645 55.4211 113.2C55.1299 113.755 54.9844 114.432 54.9844 115.231C54.9844 116.139 55.3432 117.117 56.0609 118.166C56.7786 119.216 57.8417 120.309 59.25 121.447ZM59.25 122.991C57.3948 121.596 56.0169 120.262 55.1164 118.989C54.2159 117.716 53.7656 116.464 53.7656 115.231C53.7656 114.31 53.9315 113.501 54.2633 112.804C54.5951 112.107 55.025 111.521 55.5531 111.047C56.0812 110.573 56.6703 110.217 57.3203 109.98C57.9703 109.743 58.6135 109.625 59.25 109.625C59.8865 109.625 60.5297 109.743 61.1797 109.98C61.8297 110.217 62.4187 110.573 62.9469 111.047C63.475 111.521 63.9049 112.107 64.2367 112.804C64.5685 113.501 64.7344 114.31 64.7344 115.231C64.7344 116.464 64.2841 117.716 63.3836 118.989C62.4831 120.262 61.1052 121.596 59.25 122.991ZM59.25 116.531C59.6427 116.531 59.9779 116.392 60.2555 116.115C60.5331 115.837 60.6719 115.502 60.6719 115.109C60.6719 114.717 60.5331 114.382 60.2555 114.104C59.9779 113.826 59.6427 113.688 59.25 113.688C58.8573 113.688 58.5221 113.826 58.2445 114.104C57.9669 114.382 57.8281 114.717 57.8281 115.109C57.8281 115.502 57.9669 115.837 58.2445 116.115C58.5221 116.392 58.8573 116.531 59.25 116.531ZM53.7656 125.875V124.656H64.7344V125.875H53.7656Z" fill="black"/>
<path d="M12.6832 138V129.273H13.2159V137.506H17.4773V138H12.6832ZM21.6832 138.136C21.1435 138.136 20.6634 137.991 20.2429 137.702C19.8224 137.409 19.4915 137.007 19.25 136.496C19.0085 135.984 18.8878 135.402 18.8878 134.749C18.8878 134.092 19.0085 133.51 19.25 133.001C19.4915 132.49 19.8224 132.088 20.2429 131.795C20.6634 131.503 21.1435 131.357 21.6832 131.357C22.223 131.357 22.7031 131.503 23.1236 131.795C23.544 132.088 23.875 132.49 24.1165 133.001C24.358 133.513 24.4787 134.095 24.4787 134.749C24.4787 135.402 24.358 135.984 24.1165 136.496C23.875 137.007 23.544 137.409 23.1236 137.702C22.7031 137.991 22.223 138.136 21.6832 138.136ZM21.6832 137.655C22.1406 137.655 22.5398 137.526 22.8807 137.267C23.2244 137.009 23.4901 136.659 23.6776 136.219C23.8679 135.778 23.9631 135.288 23.9631 134.749C23.9631 134.209 23.8679 133.72 23.6776 133.283C23.4872 132.842 23.2216 132.493 22.8807 132.234C22.5398 131.973 22.1406 131.842 21.6832 131.842C21.2259 131.842 20.8267 131.973 20.4858 132.234C20.1449 132.493 19.8793 132.842 19.6889 133.283C19.4986 133.72 19.4034 134.209 19.4034 134.749C19.4034 135.288 19.4972 135.778 19.6847 136.219C19.875 136.659 20.1406 137.009 20.4815 137.267C20.8253 137.526 21.2259 137.655 21.6832 137.655ZM28.7241 138.136C28.1673 138.136 27.6772 137.99 27.2539 137.697C26.8306 137.402 26.4996 136.999 26.261 136.487C26.0252 135.976 25.9073 135.396 25.9073 134.749C25.9073 134.101 26.0266 133.521 26.2653 133.01C26.5039 132.499 26.8349 132.095 27.2582 131.8C27.6815 131.504 28.1687 131.357 28.7198 131.357C29.1346 131.357 29.5124 131.442 29.8533 131.612C30.1971 131.783 30.4812 132.02 30.7056 132.324C30.9329 132.628 31.0778 132.98 31.1403 133.381H30.6119C30.5266 132.937 30.3136 132.571 29.9727 132.281C29.6346 131.989 29.2184 131.842 28.7241 131.842C28.2809 131.842 27.886 131.967 27.5394 132.217C27.1928 132.464 26.9201 132.807 26.7212 133.244C26.5224 133.679 26.4229 134.178 26.4229 134.74C26.4229 135.294 26.5195 135.791 26.7127 136.232C26.9059 136.669 27.1758 137.016 27.5224 137.271C27.869 137.527 28.2695 137.655 28.7241 137.655C29.0451 137.655 29.3377 137.591 29.6019 137.463C29.869 137.335 30.092 137.153 30.271 136.918C30.4499 136.682 30.5678 136.406 30.6246 136.091H31.1531C31.0906 136.494 30.9485 136.849 30.7269 137.156C30.5053 137.463 30.2227 137.703 29.8789 137.876C29.5352 138.05 29.1502 138.136 28.7241 138.136ZM34.6602 138.141C34.2823 138.141 33.9357 138.065 33.6204 137.915C33.3079 137.764 33.0565 137.544 32.8661 137.254C32.6786 136.964 32.5849 136.612 32.5849 136.197C32.5849 135.925 32.6332 135.685 32.7298 135.477C32.8263 135.27 32.9755 135.091 33.1772 134.94C33.3789 134.79 33.6374 134.666 33.9528 134.57C34.2681 134.47 34.6445 134.393 35.082 134.339C35.4144 134.3 35.7113 134.261 35.9727 134.224C36.234 134.185 36.4386 134.124 36.5863 134.041C36.7369 133.959 36.8121 133.834 36.8121 133.666V133.393C36.8121 132.916 36.6616 132.537 36.3604 132.256C36.0593 131.974 35.6445 131.834 35.1161 131.834C34.6474 131.834 34.2525 131.937 33.9315 132.145C33.6133 132.349 33.3903 132.614 33.2624 132.938L32.7724 132.754C32.8974 132.442 33.0778 132.182 33.3136 131.974C33.5522 131.767 33.8249 131.612 34.1317 131.51C34.4414 131.408 34.7653 131.357 35.1033 131.357C35.396 131.357 35.6744 131.398 35.9386 131.48C36.2056 131.562 36.4428 131.688 36.6502 131.855C36.8604 132.023 37.0266 132.237 37.1488 132.499C37.271 132.757 37.332 133.067 37.332 133.428V138H36.8121V136.82H36.7738C36.6602 137.064 36.5039 137.287 36.305 137.489C36.109 137.688 35.8718 137.847 35.5934 137.966C35.3178 138.082 35.0067 138.141 34.6602 138.141ZM34.7113 137.659C35.1204 137.659 35.4826 137.56 35.7979 137.361C36.1161 137.159 36.3647 136.884 36.5437 136.534C36.7227 136.185 36.8121 135.788 36.8121 135.345V134.382C36.7468 134.439 36.6516 134.49 36.5266 134.536C36.4045 134.578 36.2653 134.616 36.109 134.651C35.9556 134.682 35.7937 134.71 35.6232 134.736C35.4556 134.759 35.2923 134.78 35.1332 134.8C34.6559 134.857 34.2667 134.945 33.9656 135.064C33.6673 135.18 33.4485 135.334 33.3093 135.524C33.1729 135.714 33.1048 135.945 33.1048 136.214C33.1048 136.661 33.2582 137.013 33.565 137.271C33.8718 137.53 34.2539 137.659 34.7113 137.659ZM40.0316 129.273V138H39.5117V129.273H40.0316ZM47.0714 131.455C47.0259 130.912 46.8043 130.473 46.4066 130.138C46.0117 129.803 45.5004 129.635 44.8725 129.635C44.4492 129.635 44.0728 129.713 43.7433 129.869C43.4137 130.026 43.1552 130.239 42.9677 130.509C42.7802 130.778 42.6864 131.088 42.6864 131.438C42.6864 131.662 42.729 131.865 42.8143 132.047C42.9023 132.226 43.0259 132.386 43.185 132.528C43.3441 132.668 43.533 132.79 43.7518 132.895C43.9705 133 44.212 133.092 44.4762 133.172L45.4308 133.453C45.7575 133.553 46.0586 133.668 46.3342 133.798C46.6126 133.929 46.854 134.085 47.0586 134.267C47.266 134.446 47.4265 134.656 47.5401 134.898C47.6566 135.139 47.7148 135.418 47.7148 135.733C47.7148 136.193 47.5955 136.605 47.3569 136.969C47.1211 137.332 46.7844 137.619 46.3469 137.83C45.9123 138.037 45.3995 138.141 44.8086 138.141C44.2461 138.141 43.756 138.045 43.3384 137.855C42.9237 137.665 42.5955 137.401 42.354 137.062C42.1126 136.722 41.9762 136.33 41.945 135.886H42.4904C42.5188 136.247 42.6339 136.56 42.8356 136.824C43.0401 137.085 43.3114 137.287 43.6495 137.429C43.9876 137.571 44.3739 137.642 44.8086 137.642C45.2773 137.642 45.6907 137.562 46.0487 137.403C46.4066 137.241 46.6864 137.017 46.8881 136.73C47.0898 136.443 47.1907 136.109 47.1907 135.729C47.1907 135.422 47.1183 135.159 46.9734 134.94C46.8285 134.722 46.614 134.533 46.3299 134.374C46.0487 134.214 45.6992 134.072 45.2816 133.947L44.2631 133.641C43.5813 133.433 43.06 133.151 42.6992 132.793C42.3413 132.435 42.1623 131.989 42.1623 131.455C42.1623 131.006 42.2816 130.608 42.5202 130.261C42.7589 129.912 43.0827 129.638 43.4918 129.439C43.9038 129.24 44.3683 129.141 44.8853 129.141C45.4052 129.141 45.864 129.241 46.2617 129.443C46.6594 129.642 46.9748 129.916 47.2077 130.266C47.4407 130.612 47.57 131.009 47.5955 131.455H47.0714ZM51.9506 131.455V131.919H49.0913V131.455H51.9506ZM50.0586 129.886H50.5742V136.453C50.5742 136.72 50.6254 136.939 50.7276 137.109C50.8327 137.277 50.9691 137.402 51.1367 137.484C51.3072 137.564 51.489 137.604 51.6822 137.604C51.7759 137.604 51.8569 137.597 51.9251 137.582C51.9961 137.568 52.0629 137.55 52.1254 137.527L52.2532 138C52.1737 138.028 52.0856 138.053 51.989 138.072C51.8924 138.095 51.7788 138.107 51.6481 138.107C51.3754 138.107 51.1168 138.045 50.8725 137.923C50.631 137.801 50.435 137.624 50.2844 137.391C50.1339 137.158 50.0586 136.876 50.0586 136.547V129.886ZM56.2418 138.136C55.7021 138.136 55.2219 137.991 54.8015 137.702C54.381 137.409 54.0501 137.007 53.8086 136.496C53.5671 135.984 53.4464 135.402 53.4464 134.749C53.4464 134.092 53.5671 133.51 53.8086 133.001C54.0501 132.49 54.381 132.088 54.8015 131.795C55.2219 131.503 55.7021 131.357 56.2418 131.357C56.7816 131.357 57.2617 131.503 57.6822 131.795C58.1026 132.088 58.4336 132.49 58.6751 133.001C58.9165 133.513 59.0373 134.095 59.0373 134.749C59.0373 135.402 58.9165 135.984 58.6751 136.496C58.4336 137.007 58.1026 137.409 57.6822 137.702C57.2617 137.991 56.7816 138.136 56.2418 138.136ZM56.2418 137.655C56.6992 137.655 57.0984 137.526 57.4393 137.267C57.783 137.009 58.0487 136.659 58.2362 136.219C58.4265 135.778 58.5217 135.288 58.5217 134.749C58.5217 134.209 58.4265 133.72 58.2362 133.283C58.0458 132.842 57.7802 132.493 57.4393 132.234C57.0984 131.973 56.6992 131.842 56.2418 131.842C55.7844 131.842 55.3853 131.973 55.0444 132.234C54.7035 132.493 54.4379 132.842 54.2475 133.283C54.0572 133.72 53.962 134.209 53.962 134.749C53.962 135.288 54.0558 135.778 54.2433 136.219C54.4336 136.659 54.6992 137.009 55.0401 137.267C55.3839 137.526 55.7844 137.655 56.2418 137.655ZM60.8281 138V131.455H61.3352V132.477H61.3821C61.5241 132.142 61.7642 131.874 62.1023 131.672C62.4403 131.467 62.8253 131.365 63.2571 131.365C63.3026 131.365 63.348 131.365 63.3935 131.365C63.4389 131.365 63.4815 131.366 63.5213 131.369V131.893C63.4872 131.891 63.446 131.886 63.3977 131.881C63.3523 131.872 63.2955 131.868 63.2273 131.868C62.8636 131.868 62.5398 131.946 62.2557 132.102C61.9744 132.259 61.7528 132.474 61.5909 132.75C61.429 133.023 61.348 133.335 61.348 133.688V138H60.8281ZM67.2713 138.136C66.6804 138.136 66.1662 137.99 65.7287 137.697C65.2912 137.405 64.9531 137.004 64.7145 136.496C64.4759 135.987 64.3565 135.408 64.3565 134.757C64.3565 134.104 64.4759 133.521 64.7145 133.01C64.956 132.499 65.2869 132.095 65.7074 131.8C66.1278 131.504 66.608 131.357 67.1477 131.357C67.5142 131.357 67.8608 131.43 68.1875 131.578C68.517 131.723 68.8068 131.933 69.0568 132.209C69.3097 132.484 69.5071 132.817 69.6491 133.206C69.794 133.595 69.8665 134.033 69.8665 134.518V134.842H64.6847V134.369H69.3466C69.3466 133.895 69.25 133.467 69.0568 133.087C68.8636 132.706 68.6009 132.403 68.2685 132.179C67.9361 131.955 67.5625 131.842 67.1477 131.842C66.7131 131.842 66.3253 131.964 65.9844 132.209C65.6463 132.45 65.3778 132.777 65.179 133.189C64.983 133.601 64.8807 134.061 64.8722 134.57V134.783C64.8722 135.328 64.9673 135.818 65.1577 136.253C65.3509 136.685 65.6264 137.027 65.9844 137.28C66.3423 137.53 66.7713 137.655 67.2713 137.655C67.6293 137.655 67.9347 137.595 68.1875 137.476C68.4432 137.354 68.652 137.206 68.8139 137.033C68.9759 136.859 69.098 136.692 69.1804 136.53L69.6534 136.722C69.554 136.94 69.3991 137.159 69.1889 137.378C68.9815 137.594 68.7173 137.774 68.3963 137.919C68.0781 138.064 67.7031 138.136 67.2713 138.136Z" fill="black"/>
</g>
<defs>
<clipPath id="clip0_4658_927">
<rect width="82" height="144" fill="white"/>
</clipPath>
</defs>
</svg>
